<svg xmlns="http://www.w3.org/2000/svg" width="9" height="18" viewBox="0 0 9 18">
  <defs>
    <style>
      .cls-1 {
        fill: #a8a8a8;
        fill-rule: evenodd;
      }
    </style>
  </defs>
  <path class="cls-1" d="M1033.57,52.319a0.967,0.967,0,0,0-.74.187,1.485,1.485,0,0,0-.14.778V54.3h2.53a0.48,0.48,0,0,1,.33.162,0.438,0.438,0,0,1,.12.333l-0.2,2.354a0.383,0.383,0,0,1-.12.3,0.453,0.453,0,0,1-.31.108h-2.35v9.01a0.458,0.458,0,0,1-.13.316,0.427,0.427,0,0,1-.32.131h-2.93a0.4,0.4,0,0,1-.31-0.131,0.418,0.418,0,0,1-.13-0.316v-9.01h-1.42a0.442,0.442,0,0,1-.32-0.131A0.468,0.468,0,0,1,1027,57.1V54.767a0.511,0.511,0,0,1,.13-0.328,0.428,0.428,0,0,1,.32-0.143h1.42V53.123q0-4.115,4.16-4.126a9.572,9.572,0,0,1,2.64.357,0.418,0.418,0,0,1,.33.495l-0.31,2.286a0.556,0.556,0,0,1-.18.3,0.426,0.426,0,0,1-.35.068,7.1,7.1,0,0,0-.83-0.138A7.008,7.008,0,0,0,1033.57,52.319Z" transform="translate(-1027 -49)"/>
</svg>
