<svg xmlns="http://www.w3.org/2000/svg" width="18" height="18" viewBox="0 0 18 18">
  <defs>
    <style>
      .cls-1 {
        fill: #a8a8a8;
        fill-rule: evenodd;
      }
    </style>
  </defs>
  <path class="cls-1" d="M1079.73,49.848a3.029,3.029,0,0,1,1.25,1.385,4.205,4.205,0,0,1,.42,1.81,3.282,3.282,0,0,1-.39,1.719,5.106,5.106,0,0,1-.86,1.085c-0.31.3-.59,0.57-0.84,0.809a1.187,1.187,0,0,0-.39.9,1.206,1.206,0,0,0,.52.942q0.51,0.425,1.14.942a6.611,6.611,0,0,1,1.13,1.235,3.134,3.134,0,0,1,.52,1.857,3.455,3.455,0,0,1-.59,2.016,4.845,4.845,0,0,1-1.48,1.393,6.807,6.807,0,0,1-1.99.8,9.208,9.208,0,0,1-2.13.26,8.335,8.335,0,0,1-1.65-.178,6.1,6.1,0,0,1-1.65-.581,3.858,3.858,0,0,1-1.24-1.034,2.477,2.477,0,0,1-.49-1.576,2.8,2.8,0,0,1,.66-1.906,4.811,4.811,0,0,1,1.63-1.212,8.1,8.1,0,0,1,2.1-.645,14.727,14.727,0,0,1,2.04-.213,4.386,4.386,0,0,1-.49-0.734,1.875,1.875,0,0,1-.22-0.874,1.377,1.377,0,0,1,.08-0.471c0.05-.138.11-0.291,0.17-0.459a1.7,1.7,0,0,1-.39.044h-0.41a4.388,4.388,0,0,1-1.52-.267,3.827,3.827,0,0,1-2.13-1.932,3.354,3.354,0,0,1-.33-1.5,3.812,3.812,0,0,1,.29-1.47,4.812,4.812,0,0,1,1.94-2.225,4.579,4.579,0,0,1,1.4-.567,10.315,10.315,0,0,1,2.06-.209h4.82l-1.49.851h-1.49Zm0.94,13.63a2.109,2.109,0,0,0-.25-1.029,3.7,3.7,0,0,0-.62-0.828,6.926,6.926,0,0,0-.83-0.678c-0.3-.211-0.6-0.41-0.89-0.6-0.11-.017-0.23-0.028-0.34-0.035-0.13-.007-0.24-0.012-0.35-0.012a7.8,7.8,0,0,0-1.44.143,5.214,5.214,0,0,0-1.42.471,3.134,3.134,0,0,0-1.06.867,2.071,2.071,0,0,0-.42,1.346,2.18,2.18,0,0,0,.4,1.331,3.448,3.448,0,0,0,1.02.9,4.732,4.732,0,0,0,1.34.5,6.712,6.712,0,0,0,1.38.155,5.924,5.924,0,0,0,1.22-.131,3.48,3.48,0,0,0,1.13-.439,2.469,2.469,0,0,0,.82-0.785A2.2,2.2,0,0,0,1080.67,63.478Zm-3.35-6.953a1.706,1.706,0,0,0,1.57-.708,3.071,3.071,0,0,0,.44-1.692,6.418,6.418,0,0,0-.69-2.787,3.57,3.57,0,0,0-.92-1.116,2.064,2.064,0,0,0-1.32-.443,2.14,2.14,0,0,0-.96.209,1.937,1.937,0,0,0-.67.563,2.7,2.7,0,0,0-.4.816,3.377,3.377,0,0,0-.13.954,5.381,5.381,0,0,0,.2,1.35,5.171,5.171,0,0,0,.61,1.378,3.794,3.794,0,0,0,.96,1.057A2.149,2.149,0,0,0,1077.32,56.524Zm11.67-4.942h-2.51V49.088h-1.26v2.494h-2.51V52.79h2.51v2.471h1.26V52.79h2.51V51.582Z" transform="translate(-1071 -49)"/>
</svg>
