<svg xmlns="http://www.w3.org/2000/svg" width="8" height="8" viewBox="0 0 8 8">
  <path class="cls-1" d="M872,667a4,4,0,1,1,4-4A4,4,0,0,1,872,667Zm0-7.467A3.467,3.467,0,1,0,875.467,663,3.467,3.467,0,0,0,872,659.533Zm2.933,3.734A0.267,0.267,0,1,1,875.2,663,0.267,0.267,0,0,1,874.933,663.267Zm-0.866,2.066a0.267,0.267,0,1,1,.266-0.266A0.266,0.266,0,0,1,874.067,665.333Zm0-4.133a0.267,0.267,0,1,1,.266-0.267A0.266,0.266,0,0,1,874.067,661.2Zm-1,2.067h-0.8v0.266a0.267,0.267,0,0,1-.534,0v-0.266h-0.266a0.267,0.267,0,0,1,0-.534h0.266V661.4a0.267,0.267,0,1,1,.534,0v1.333h0.8A0.267,0.267,0,0,1,873.067,663.267ZM872,660.333a0.267,0.267,0,1,1,.267-0.266A0.267,0.267,0,0,1,872,660.333Zm-2.067,5a0.267,0.267,0,1,1,.267-0.266A0.266,0.266,0,0,1,869.933,665.333Zm0-4.133a0.267,0.267,0,1,1,.267-0.267A0.266,0.266,0,0,1,869.933,661.2ZM872,665.667a0.267,0.267,0,1,1-.267.266A0.267,0.267,0,0,1,872,665.667Zm-2.933-2.4a0.267,0.267,0,1,1,.266-0.267A0.267,0.267,0,0,1,869.067,663.267Z" transform="translate(-868 -659)"/>
</svg>
