<svg xmlns="http://www.w3.org/2000/svg" width="14" height="11" viewBox="0 0 14 11">
  <defs>
    <style>
      .cls-1 {
        fill: #fff;
        fill-rule: evenodd;
      }
    </style>
  </defs>
  <path class="cls-1" d="M233.892,179.131a0.269,0.269,0,0,1,.1.181,0.245,0.245,0,0,1-.059.2l-0.335.372a0.253,0.253,0,0,1-.216.1H232.9a0.286,0.286,0,0,1-.187-0.057l-5.53-4.269a0.281,0.281,0,0,0-.372,0l-5.531,4.269a0.268,0.268,0,0,1-.187.057h-0.484a0.269,0.269,0,0,1-.216-0.1l-0.334-.372a0.236,0.236,0,0,1-.061-0.194,0.307,0.307,0,0,1,.1-0.186l6.454-4.985A0.79,0.79,0,0,1,227,174a0.712,0.712,0,0,1,.44.148l1.786,1.376v-0.716a0.258,0.258,0,0,1,.085-0.193,0.286,0.286,0,0,1,.205-0.081h1.66a0.257,0.257,0,0,1,.2.081,0.267,0.267,0,0,1,.079.193v2.444l2.442,1.881h0Zm-1.877.97v4.368a0.505,0.505,0,0,1-.159.383,0.569,0.569,0,0,1-.406.152h-3.141v-3.5h-2.62V185h-3.142a0.564,0.564,0,0,1-.405-0.152,0.5,0.5,0,0,1-.161-0.383V180.1L227,176.217Z" transform="translate(-220 -174)"/>
</svg>
