<svg xmlns="http://www.w3.org/2000/svg" width="12" height="12" viewBox="0 0 12 12">
  <defs>
    <style>
      .cls-1 {
        fill: #fff;
        fill-rule: evenodd;
      }
    </style>
  </defs>
  <path class="cls-1" d="M232.25,303h-10.5a0.75,0.75,0,0,1-.75-0.75v-10.5a0.75,0.75,0,0,1,.75-0.75h10.5a0.75,0.75,0,0,1,.75.75v10.5A0.75,0.75,0,0,1,232.25,303Zm0-11.25h-10.5v9h10.5v-9Zm-7.5,4.5c1.1,0,1.5,1.148,2.25,1.148s1.125-1.9,2.25-1.9c1.1,0,2.25,4.5,2.25,4.5h-9S223.648,296.25,224.75,296.25Zm-0.375-1.875a0.75,0.75,0,1,1,.75-0.75A0.75,0.75,0,0,1,224.375,294.375Z" transform="translate(-221 -291)"/>
</svg>
