<svg xmlns="http://www.w3.org/2000/svg" width="18" height="18" viewBox="0 0 18 18">
  <defs>
    <style>
      .cls-1 {
        fill: #a8a8a8;
        fill-rule: evenodd;
      }
    </style>
  </defs>
  <path class="cls-1" d="M1123.01,49a8.777,8.777,0,0,1,3.5.7,9.162,9.162,0,0,1,2.86,1.928,9,9,0,0,1,0,12.737,9.117,9.117,0,0,1-2.86,1.925,8.778,8.778,0,0,1-3.5.7,9.1,9.1,0,0,1-1.31-.094,10.331,10.331,0,0,1-1.26-.276c0.17-.264.34-0.563,0.52-0.9a4.536,4.536,0,0,0,.4-1.034l0.12-.464c0.05-.17.11-0.418,0.19-0.742s0.18-.742.32-1.261a2.106,2.106,0,0,0,.86.795,2.67,2.67,0,0,0,1.33.331,4.245,4.245,0,0,0,1.98-.462,4.6,4.6,0,0,0,1.54-1.289,6.393,6.393,0,0,0,.99-1.96,8.047,8.047,0,0,0,.36-2.449,4.816,4.816,0,0,0-.41-1.928,4.952,4.952,0,0,0-1.15-1.659,5.477,5.477,0,0,0-1.8-1.149,6.217,6.217,0,0,0-2.35-.423,7.089,7.089,0,0,0-2.8.517,6.237,6.237,0,0,0-2.01,1.335,5.719,5.719,0,0,0-1.22,1.808,5.335,5.335,0,0,0-.4,1.96,4.829,4.829,0,0,0,.45,2.111,2.581,2.581,0,0,0,1.4,1.323,0.323,0.323,0,0,0,.46-0.225c0.01-.076.04-0.193,0.08-0.356a2.264,2.264,0,0,1,.1-0.365,0.466,0.466,0,0,0,.01-0.26,1.486,1.486,0,0,0-.15-0.248,2.543,2.543,0,0,1-.59-1.744,4.334,4.334,0,0,1,.31-1.638,4.068,4.068,0,0,1,.88-1.376,4.239,4.239,0,0,1,1.4-.944,4.954,4.954,0,0,1,3.44-.092,3.479,3.479,0,0,1,1.19.726,3.035,3.035,0,0,1,.73,1.082,3.749,3.749,0,0,1,.24,1.362,7.91,7.91,0,0,1-.21,1.847,5.421,5.421,0,0,1-.59,1.532,3.556,3.556,0,0,1-.9,1.036,1.912,1.912,0,0,1-1.16.384,1.484,1.484,0,0,1-.65-0.142,1.528,1.528,0,0,1-.51-0.381,1.289,1.289,0,0,1-.27-1.234,15.561,15.561,0,0,1,.5-1.707,4.534,4.534,0,0,0,.3-1.468,1.517,1.517,0,0,0-.3-0.947,1.089,1.089,0,0,0-.92-0.4,1.493,1.493,0,0,0-1.24.659,2.672,2.672,0,0,0-.5,1.649,2.144,2.144,0,0,0,.03.508,3.006,3.006,0,0,0,.08.455,1.785,1.785,0,0,0,.18.469c-0.25,1.057-.45,1.9-0.61,2.534s-0.27,1.121-.34,1.475c-0.09.414-.16,0.715-0.2,0.9a7.091,7.091,0,0,0-.16,1.048,8.466,8.466,0,0,0-.01,1,8.835,8.835,0,0,1-2.17-1.346,8.988,8.988,0,0,1-1.7-1.9,9,9,0,0,1-.8-8.491,8.946,8.946,0,0,1,4.79-4.788A8.79,8.79,0,0,1,1123.01,49Z" transform="translate(-1114 -49)"/>
</svg>
