<svg xmlns="http://www.w3.org/2000/svg" width="34" height="28" viewBox="0 0 34 28">
  <defs>
    <style>
      .cls-1 {
        fill: #d66cb7;
        fill-rule: evenodd;
      }
    </style>
  </defs>
  <path class="cls-1" d="M233.325,813.891a2.3,2.3,0,0,1,.617,1.534,1.975,1.975,0,0,1-.617,1.5l-9.541,9.359a2.27,2.27,0,0,1-1.569.659,1.779,1.779,0,0,1-1.513-.659l-12.148-13.323a6.315,6.315,0,0,1-1.1-1.752,4.9,4.9,0,0,1-.463-1.946v-8.106a2.074,2.074,0,0,1,.637-1.519,2.1,2.1,0,0,1,1.557-.645h8.235a4.7,4.7,0,0,1,.969.11,5.7,5.7,0,0,1,1.044.327,8,8,0,0,1,.987.5,3.271,3.271,0,0,1,.755.6l12.149,13.359h0Zm-20.658-7.217a2.05,2.05,0,0,0,1.487-.623,2.035,2.035,0,0,0,0-2.958,2.134,2.134,0,0,0-3,0,2.062,2.062,0,0,0,0,2.958A2.068,2.068,0,0,0,212.667,806.674Zm27.712,7.25a2.186,2.186,0,0,1,.633,1.556,2.063,2.063,0,0,1-.633,1.519l-9.5,9.355a2.189,2.189,0,0,1-1.558.645,2.023,2.023,0,0,1-1.561-.645l-0.218-.248,9.322-9.18a2.006,2.006,0,0,0,.626-1.508,2.168,2.168,0,0,0-.626-1.527l-12.152-13.359a3.994,3.994,0,0,0-1.52-1.009,7.547,7.547,0,0,0-1.85-.492h3.155a5.635,5.635,0,0,1,2.039.437,4.272,4.272,0,0,1,1.694,1.1l12.152,13.356h0Z" transform="translate(-207 -799)"/>
</svg>
