<svg xmlns="http://www.w3.org/2000/svg" width="11" height="16" viewBox="0 0 11 16">
  <path fill="white" class="cls-1" d="M221,228v16H232V228H221Zm1.624,14.935a0.185,0.185,0,0,1-.18.19h-0.812a0.186,0.186,0,0,1-.181-0.19v-0.4a0.186,0.186,0,0,1,.181-0.19h0.812a0.185,0.185,0,0,1,.18.19v0.4Zm0-2.264a0.185,0.185,0,0,1-.18.19h-0.812a0.186,0.186,0,0,1-.181-0.19v-0.4a0.186,0.186,0,0,1,.181-0.191h0.812a0.186,0.186,0,0,1,.18.191v0.4Zm0-2.264a0.185,0.185,0,0,1-.18.19h-0.812a0.186,0.186,0,0,1-.181-0.19v-0.4a0.186,0.186,0,0,1,.181-0.191h0.812a0.186,0.186,0,0,1,.18.191v0.4Zm0-2.264a0.185,0.185,0,0,1-.18.19h-0.812a0.186,0.186,0,0,1-.181-0.19v-0.4a0.186,0.186,0,0,1,.181-0.191h0.812a0.186,0.186,0,0,1,.18.191v0.4Zm0-2.265a0.186,0.186,0,0,1-.18.191h-0.812a0.186,0.186,0,0,1-.181-0.191v-0.4a0.186,0.186,0,0,1,.181-0.191h0.812a0.186,0.186,0,0,1,.18.191v0.4Zm0-2.264a0.186,0.186,0,0,1-.18.191h-0.812a0.186,0.186,0,0,1-.181-0.191v-0.4a0.186,0.186,0,0,1,.181-0.19h0.812a0.185,0.185,0,0,1,.18.19v0.4Zm0-2.264a0.186,0.186,0,0,1-.18.191h-0.812a0.186,0.186,0,0,1-.181-0.191v-0.4a0.186,0.186,0,0,1,.181-0.19h0.812a0.185,0.185,0,0,1,.18.19v0.4Zm7.129,13.124a0.652,0.652,0,0,1-.632.666H223.7a0.652,0.652,0,0,1-.632-0.666v-5.556a0.652,0.652,0,0,1,.632-0.666h5.414a0.652,0.652,0,0,1,.632.666v5.556Zm0-7.491a0.652,0.652,0,0,1-.632.666H223.7a0.652,0.652,0,0,1-.632-0.666v-5.555a0.651,0.651,0,0,1,.632-0.666h5.414a0.651,0.651,0,0,1,.632.666v5.555Zm1.715,7.952a0.186,0.186,0,0,1-.181.19H230.47a0.185,0.185,0,0,1-.18-0.19v-0.4a0.185,0.185,0,0,1,.18-0.19h0.812a0.186,0.186,0,0,1,.181.19v0.4Zm0-2.264a0.186,0.186,0,0,1-.181.19H230.47a0.185,0.185,0,0,1-.18-0.19v-0.4a0.186,0.186,0,0,1,.18-0.191h0.812a0.186,0.186,0,0,1,.181.191v0.4Zm0-2.264a0.186,0.186,0,0,1-.181.19H230.47a0.185,0.185,0,0,1-.18-0.19v-0.4a0.186,0.186,0,0,1,.18-0.191h0.812a0.186,0.186,0,0,1,.181.191v0.4Zm0-2.264a0.186,0.186,0,0,1-.181.19H230.47a0.185,0.185,0,0,1-.18-0.19v-0.4a0.186,0.186,0,0,1,.18-0.191h0.812a0.186,0.186,0,0,1,.181.191v0.4Zm0-2.265a0.186,0.186,0,0,1-.181.191H230.47a0.186,0.186,0,0,1-.18-0.191v-0.4a0.186,0.186,0,0,1,.18-0.191h0.812a0.186,0.186,0,0,1,.181.191v0.4Zm0-2.264a0.186,0.186,0,0,1-.181.191H230.47a0.186,0.186,0,0,1-.18-0.191v-0.4a0.185,0.185,0,0,1,.18-0.19h0.812a0.186,0.186,0,0,1,.181.19v0.4Zm0-2.264a0.186,0.186,0,0,1-.181.191H230.47a0.186,0.186,0,0,1-.18-0.191v-0.4a0.185,0.185,0,0,1,.18-0.19h0.812a0.186,0.186,0,0,1,.181.19v0.4Z" transform="translate(-221 -228)"/>
</svg>
