<svg xmlns="http://www.w3.org/2000/svg" width="25" height="17" viewBox="0 0 25 17">
  <path fill="#a8a8a8" class="cls-1" d="M995.17,57.288a0.837,0.837,0,0,1,.57.1,0.535,0.535,0,0,1,.257.5,0.808,0.808,0,0,1-.359.654,4.473,4.473,0,0,1-.833.488,5.385,5.385,0,0,1-.985.336,6.751,6.751,0,0,1-.791.144,9.051,9.051,0,0,1-1.8,3.216,11.076,11.076,0,0,1-2.849,2.335A14.79,14.79,0,0,1,981.149,67a13.3,13.3,0,0,1-5.629-1.225,11.25,11.25,0,0,1-4.4-3.579,0.8,0.8,0,0,1-.11-0.339,0.584,0.584,0,0,1,.182-0.438,0.627,0.627,0,0,1,.454-0.179,0.766,0.766,0,0,1,.42.157,5.752,5.752,0,0,0,3.895,1.415,6.636,6.636,0,0,0,1.593-.2,4.732,4.732,0,0,0,1.455-.627,1.884,1.884,0,0,1-.642-0.55,1.244,1.244,0,0,1-.251-0.758,1.118,1.118,0,0,1,.108-0.513,3.632,3.632,0,0,1-.6-0.267,5.046,5.046,0,0,1-.691-0.443,2.712,2.712,0,0,1-.556-0.566,1.024,1.024,0,0,1-.224-0.606,0.563,0.563,0,0,1,.135-0.373,1.509,1.509,0,0,1,.341-0.294,3.577,3.577,0,0,1-1.032-.969,2.152,2.152,0,0,1-.473-1.281,0.548,0.548,0,0,1,.448-0.563,3.44,3.44,0,0,1-.752-1.06,2.9,2.9,0,0,1-.28-1.244,1.126,1.126,0,0,1,.13-0.545,0.519,0.519,0,0,1,.507-0.24,4.461,4.461,0,0,1,1.139.352c0.6,0.235,1.242.5,1.934,0.792s1.352,0.587,1.986.883,1.073,0.5,1.328.627a5.134,5.134,0,0,1,.644.411c0.2,0.152.4,0.312,0.6,0.478,0.18-.443.395-0.907,0.639-1.393a12.927,12.927,0,0,1,.813-1.393,10.319,10.319,0,0,1,.99-1.254,4.942,4.942,0,0,1,1.207-.969,0.54,0.54,0,0,1,.326-0.08,0.556,0.556,0,0,1,.365.1q0.216-.076.564-0.176a2.2,2.2,0,0,1,.576-0.1,0.621,0.621,0,0,1,.58.352,1.511,1.511,0,0,1,.769.2,0.712,0.712,0,0,1,.343.662,0.851,0.851,0,0,1-.365.691,5.559,5.559,0,0,1,2.163,1.636A6.606,6.606,0,0,1,993,55.927a1.115,1.115,0,0,0,.309.027,3.266,3.266,0,0,0,1.195-.216,2.612,2.612,0,0,1,.772-0.216,0.582,0.582,0,0,1,.429.19,0.607,0.607,0,0,1,.182.427,1.032,1.032,0,0,1-.265.632A5.372,5.372,0,0,1,995.17,57.288Z" transform="translate(-971 -50)"/>
</svg>
